[Header]
FileType HTR
DataType HTRS
FileVersion 1
NumSegments 64
NumFrames 4
DataFrameRate 24
EulerRotationOrder ZYX
CalibrationUnits mm
RotationUnits Degrees
GlobalAxisofGravity Y
BoneLengthAxis Y
ScaleFactor 1.0
[SegmentNames&Hierarchy]
Hips	GLOBAL
Spine	Hips
Spine1	Spine
Spine2	Spine1
Neck	Spine2
Head	Neck
LeftEye	Head
RightEye	Head
LeftShoulder	Spine2
LeftArm	LeftShoulder
LeftForeArm	LeftArm
LeftHand	LeftForeArm
LeftHandThumb1	LeftHand
LeftHandThumb2	LeftHandThumb1
LeftHandThumb3	LeftHandThumb2
LeftHandThumb4	LeftHandThumb3
LeftHandIndex1	LeftHand
LeftHandIndex2	LeftHandIndex1
LeftHandIndex3	LeftHandIndex2
LeftHandIndex4	LeftHandIndex3
LeftHandMiddle1	LeftHand
LeftHandMiddle2	LeftHandMiddle1
LeftHandMiddle3	LeftHandMiddle2
LeftHandMiddle4	LeftHandMiddle3
LeftHandRing1	LeftHand
LeftHandRing2	LeftHandRing1
LeftHandRing3	LeftHandRing2
LeftHandRing4	LeftHandRing3
LeftHandPinky1	LeftHand
LeftHandPinky2	LeftHandPinky1
LeftHandPinky3	LeftHandPinky2
LeftHandPinky4	LeftHandPinky3
RightShoulder	Spine2
RightArm	RightShoulder
RightForeArm	RightArm
RightHand	RightForeArm
RightHandPinky1	RightHand
RightHandPinky2	RightHandPinky1
RightHandPinky3	RightHandPinky2
RightHandPinky4	RightHandPinky3
RightHandRing1	RightHand
RightHandRing2	RightHandRing1
RightHandRing3	RightHandRing2
RightHandRing4	RightHandRing3
RightHandMiddle1	RightHand
RightHandMiddle2	RightHandMiddle1
RightHandMiddle3	RightHandMiddle2
RightHandMiddle4	RightHandMiddle3
RightHandIndex1	RightHand
RightHandIndex2	RightHandIndex1
RightHandIndex3	RightHandIndex2
RightHandIndex4	RightHandIndex3
RightHandThumb1	RightHand
RightHandThumb2	RightHandThumb1
RightHandThumb3	RightHandThumb2
RightHandThumb4	RightHandThumb3
LeftUpLeg	Hips
LeftLeg	LeftUpLeg
LeftFoot	LeftLeg
LeftToeBase	LeftFoot
RightUpLeg	Hips
RightLeg	RightUpLeg
RightFoot	RightLeg
RightToeBase	RightFoot
[BasePosition]
Hips	0	0	0	0	0	0	1
Spine	0	0	0	0	0	0	1
Spine1	0	0	0	0	0	0	1
Spine2	0	0	0	0	0	0	1
Neck	0	0	0	0	0	0	1
Head	0	0	0	0	0	0	1
LeftEye	0	0	0	0	0	0	1
RightEye	0	0	0	0	0	0	1
LeftShoulder	0	0	0	0	0	0	1
LeftArm	0	0	0	0	0	0	1
LeftForeArm	0	0	0	0	0	0	1
LeftHand	0	0	0	0	0	0	1
LeftHandThumb1	0	0	0	0	0	0	1
LeftHandThumb2	0	0	0	0	0	0	1
LeftHandThumb3	0	0	0	0	0	0	1
LeftHandThumb4	0	0	0	0	0	0	1
LeftHandIndex1	0	0	0	0	0	0	1
LeftHandIndex2	0	0	0	0	0	0	1
LeftHandIndex3	0	0	0	0	0	0	1
LeftHandIndex4	0	0	0	0	0	0	1
LeftHandMiddle1	0	0	0	0	0	0	1
LeftHandMiddle2	0	0	0	0	0	0	1
LeftHandMiddle3	0	0	0	0	0	0	1
LeftHandMiddle4	0	0	0	0	0	0	1
LeftHandRing1	0	0	0	0	0	0	1
LeftHandRing2	0	0	0	0	0	0	1
LeftHandRing3	0	0	0	0	0	0	1
LeftHandRing4	0	0	0	0	0	0	1
LeftHandPinky1	0	0	0	0	0	0	1
LeftHandPinky2	0	0	0	0	0	0	1
LeftHandPinky3	0	0	0	0	0	0	1
LeftHandPinky4	0	0	0	0	0	0	1
RightShoulder	0	0	0	0	0	0	1
RightArm	0	0	0	0	0	0	1
RightForeArm	0	0	0	0	0	0	1
RightHand	0	0	0	0	0	0	1
RightHandPinky1	0	0	0	0	0	0	1
RightHandPinky2	0	0	0	0	0	0	1
RightHandPinky3	0	0	0	0	0	0	1
RightHandPinky4	0	0	0	0	0	0	1
RightHandRing1	0	0	0	0	0	0	1
RightHandRing2	0	0	0	0	0	0	1
RightHandRing3	0	0	0	0	0	0	1
RightHandRing4	0	0	0	0	0	0	1
RightHandMiddle1	0	0	0	0	0	0	1
RightHandMiddle2	0	0	0	0	0	0	1
RightHandMiddle3	0	0	0	0	0	0	1
RightHandMiddle4	0	0	0	0	0	0	1
RightHandIndex1	0	0	0	0	0	0	1
RightHandIndex2	0	0	0	0	0	0	1
RightHandIndex3	0	0	0	0	0	0	1
RightHandIndex4	0	0	0	0	0	0	1
RightHandThumb1	0	0	0	0	0	0	1
RightHandThumb2	0	0	0	0	0	0	1
RightHandThumb3	0	0	0	0	0	0	1
RightHandThumb4	0	0	0	0	0	0	1
LeftUpLeg	0	0	0	0	0	0	1
LeftLeg	0	0	0	0	0	0	1
LeftFoot	0	0	0	0	0	0	1
LeftToeBase	0	0	0	0	0	0	1
RightUpLeg	0	0	0	0	0	0	1
RightLeg	0	0	0	0	0	0	1
RightFoot	0	0	0	0	0	0	1
RightToeBase	0	0	0	0	0	0	1
[Hips]
215	142.9887238	973.6069336	-253.2870636	-19.92419243	-43.91966629	-341.6704407	1.0
216	132.602005	988.0528564	-262.6915894	-14.61832809	-44.15802383	-349.9695435	1.0
217	115.4726563	993.8312988	-277.862854	-9.578508377	-43.69073486	-357.3778992	1.0
218	103.5813065	1002.041992	-293.8545227	-4.610433578	-41.17709732	-363.3224182	1.0
[Spine]
215	0	101.8159943	1.315000057	16.67517471	10.53331184	-2.625121832	1.0
216	0	101.8159943	1.315000057	16.33639717	14.18106461	6.388176918	1.0
217	0	101.8159943	1.315000057	15.26243591	19.97924614	10.79176807	1.0
218	0	101.8159943	1.315000057	14.16009808	24.9585743	15.49269962	1.0
[Spine1]
215	0	100.8349991	-10.00800037	-0.2647875249	1.823263645	-8.402510643	1.0
216	0	100.8349991	-10.00800037	0.9645799398	2.543290854	-8.66620636	1.0
217	0	100.8349991	-10.00800037	1.982478261	3.332463026	-6.543638706	1.0
218	0	100.8349991	-10.00800037	2.675264597	4.023631096	-5.186183453	1.0
[Spine2]
215	0	91	-13.73399925	-0.05935941637	1.605578065	-8.446949959	1.0
216	0	91	-13.73399925	1.279615641	2.355900288	-8.673066139	1.0
217	0	91	-13.73399925	2.313668728	3.197019577	-6.495115757	1.0
218	0	91	-13.73399925	3.030243635	3.909411669	-5.069694996	1.0
[Neck]
215	0	166.7169952	-25.16200066	-8.31714344	8.281775475	-1.028826594	1.0
216	0	166.7169952	-25.16200066	-6.803464413	8.718750954	-2.24386692	1.0
217	0	166.7169952	-25.16200066	-4.886404037	9.003062248	-3.722922087	1.0
218	0	166.7169952	-25.16200066	-3.058699608	8.923199654	-4.832834244	1.0
[Head]
215	0	96.17900085	16.84999847	-3.218776703	40.18528748	0.7345670462	1.0
216	0	96.17900085	16.84999847	-1.274971604	41.01650238	0.08433887362	1.0
217	0	96.17900085	16.84999847	0.5424069762	40.65361404	-0.3141872287	1.0
218	0	96.17900085	16.84999847	1.261702299	38.76042938	-0.6813253164	1.0
[LeftEye]
215	30.6760006	64.09500122	92.83599854	0	0	0	1.0
216	30.6760006	64.09500122	92.83599854	0	0	0	1.0
217	30.6760006	64.09500122	92.83599854	0	0	0	1.0
218	30.6760006	64.09500122	92.83599854	0	0	0	1.0
[RightEye]
215	-30.6760006	64.09500122	92.83499908	0	0	0	1.0
216	-30.6760006	64.09500122	92.83499908	0	0	0	1.0
217	-30.6760006	64.09500122	92.83499908	0	0	0	1.0
218	-30.6760006	64.09500122	92.83499908	0	0	0	1.0
[LeftShoulder]
215	45.70400238	109.4599991	-26.28000069	-0.8835632205	7.509682178	-15.11118889	1.0
216	45.70400238	109.4599991	-26.28000069	-1.299035668	9.101789474	-16.32806206	1.0
217	45.70400238	109.4599991	-26.28000069	-1.71162641	10.79791164	-16.5736599	1.0
218	45.70400238	109.4599991	-26.28000069	-1.883825183	11.45362377	-16.80730438	1.0
[LeftArm]
215	105.923996	-5.24600029	-22.32099915	39.26231003	0.7973098159	-31.57330704	1.0
216	105.923996	-5.24600029	-22.32099915	27.71593475	14.69904518	-30.42209053	1.0
217	105.923996	-5.24600029	-22.32099915	9.867285728	30.35967636	-30.61303139	1.0
218	105.923996	-5.24600029	-22.32099915	2.323564768	36.99282837	-27.75030136	1.0
[LeftForeArm]
215	278.414978	-0.0009999999311	0	4.398445128e-07	-12.66743946	-0.0001964048424	1.0
216	278.414978	-0.0009999999311	0	-2.626199205e-07	-21.47920799	-0.0002006892464	1.0
217	278.414978	-0.0009999999311	0	1.069815994e-06	-33.69150543	-0.0002071511408	1.0
218	278.414978	-0.0009999999311	0	7.067989827e-06	-37.04112625	-0.0002060318802	1.0
[LeftHand]
215	283.2879944	0	0	11.12538338	19.8928299	13.46282578	1.0
216	283.2879944	0	0	15.13686943	20.32613182	15.78648663	1.0
217	283.2879944	0	0	21.13456345	22.92133904	16.7418232	1.0
218	283.2879944	0	0	26.55532265	25.09832191	15.10473728	1.0
[LeftHandThumb1]
215	24.6609993	-15.75	26.8239994	4.370016575	4.007666588	-7.625342369	1.0
216	24.6609993	-15.75	26.8239994	4.539292812	3.634855032	-8.927270889	1.0
217	24.6609993	-15.75	26.8239994	4.993056774	2.881253242	-10.50365639	1.0
218	24.6609993	-15.75	26.8239994	5.836371899	1.861296415	-12.1349535	1.0
[LeftHandThumb2]
215	32.29800034	-18.64699936	18.64699936	1.210289478	-0.1869953126	-1.054815888	1.0
216	32.29800034	-18.64699936	18.64699936	1.21115303	-0.1874004006	-1.054580927	1.0
217	32.29800034	-18.64699936	18.64699936	1.21301806	-0.188497752	-1.053358912	1.0
218	32.29800034	-18.64699936	18.64699936	1.215304732	-0.1899439394	-1.051432133	1.0
[LeftHandThumb3]
215	26.52600098	-15.31499958	15.31499958	-5.344326496	-5.814977169	4.088612556	1.0
216	26.52600098	-15.31499958	15.31499958	-5.14273262	-5.510068417	4.01193428	1.0
217	26.52600098	-15.31499958	15.31499958	-4.711405754	-4.847167492	3.865206957	1.0
218	26.52600098	-15.31499958	15.31499958	-4.084163189	-3.872527599	3.678462982	1.0
[LeftHandThumb4]
215	19.54599953	-11.28499985	11.28499985	0	0	0	1.0
216	19.54599953	-11.28499985	11.28499985	0	0	0	1.0
217	19.54599953	-11.28499985	11.28499985	0	0	0	1.0
218	19.54599953	-11.28499985	11.28499985	0	0	0	1.0
[LeftHandIndex1]
215	91.09299469	-5.170999527	22.60099792	0.01822064072	-7.263738155	-6.856202602	1.0
216	91.09299469	-5.170999527	22.60099792	-0.06253759563	-7.003127098	-11.30757332	1.0
217	91.09299469	-5.170999527	22.60099792	-0.3042286932	-6.434539795	-19.05840302	1.0
218	91.09299469	-5.170999527	22.60099792	-0.8216849566	-5.799069881	-29.59164429	1.0
[LeftHandIndex2]
215	36.76399994	0	0	5.73497482e-06	-1.87075002e-05	-1.665035234e-05	1.0
216	36.76399994	0	0	-3.93711889e-06	7.951386796e-16	-7.951386796e-16	1.0
217	36.76399994	0	0	1.075448472e-05	0.001455024583	-0.01213925425	1.0
218	36.76399994	0	0	-2.325818605e-05	0.01850348152	-0.1538673788	1.0
[LeftHandIndex3]
215	28.83100128	0	0	-0.08653903008	1.088287592	-9.091369629	1.0
216	28.83100128	0	0	-0.08707694709	1.091724634	-9.120475769	1.0
217	28.83100128	0	0	-0.08484054357	1.077681065	-9.002102852	1.0
218	28.83100128	0	0	-0.07869917899	1.038177133	-8.669480324	1.0
[LeftHandIndex4]
215	23.92700005	0	0	0	0	0	1.0
216	23.92700005	0	0	0	0	0	1.0
217	23.92700005	0	0	0	0	0	1.0
218	23.92700005	0	0	0	0	0	1.0
[LeftHandMiddle1]
215	95.33399963	0	0	-0.3588076234	3.476839542	-18.62592888	1.0
216	95.33399963	0	0	-0.4843666553	3.638324499	-21.65100288	1.0
217	95.33399963	0	0	-0.7150985003	3.977986574	-26.36167145	1.0
218	95.33399963	0	0	-1.130259991	4.493388653	-33.31392288	1.0
[LeftHandMiddle2]
215	36.98199844	0	0	-0.08227855712	1.061370015	-8.864653587	1.0
216	36.98199844	0	0	-0.1034791246	1.189417005	-9.9447155	1.0
217	36.98199844	0	0	-0.1053678393	1.200103283	-10.03504562	1.0
218	36.98199844	0	0	-0.1038273498	1.191293955	-9.960568428	1.0
[LeftHandMiddle3]
215	29.50900078	0	0	-0.3425369859	2.144466162	-18.14772224	1.0
216	29.50900078	0	0	-0.3259500265	2.093229055	-17.6992588	1.0
217	29.50900078	0	0	-0.2458721101	1.823586822	-15.35676193	1.0
218	29.50900078	0	0	-0.1719528437	1.529266953	-12.83035278	1.0
[LeftHandMiddle4]
215	28.3390007	0	0	0	0	0	1.0
216	28.3390007	0	0	0	0	0	1.0
217	28.3390007	0	0	0	0	0	1.0
218	28.3390007	0	0	0	0	0	1.0
[LeftHandRing1]
215	91.04499817	-0.4390000105	-18.65100098	-0.8944218755	13.4316473	-30.98846817	1.0
216	91.04499817	-0.4390000105	-18.65100098	-1.04836905	13.39853764	-33.29546356	1.0
217	91.04499817	-0.4390000105	-18.65100098	-1.23988688	13.47395897	-36.01822662	1.0
218	91.04499817	-0.4390000105	-18.65100098	-1.613480568	13.84153271	-40.9444809	1.0
[LeftHandRing2]
215	31.54000092	0	0	-0.5624349117	2.724869967	-23.32094193	1.0
216	31.54000092	0	0	-0.6319051981	2.880482197	-24.74160004	1.0
217	31.54000092	0	0	-0.5530657172	2.703056812	-23.12295532	1.0
218	31.54000092	0	0	-0.4321171343	2.400462627	-20.40720749	1.0
[LeftHandRing3]
215	29.37700081	0	0	-0.765016377	3.152955294	-27.27041435	1.0
216	29.37700081	0	0	-0.6993182898	3.022286415	-26.05091095	1.0
217	29.37700081	0	0	-0.4532274604	2.456388712	-20.90525436	1.0
218	29.37700081	0	0	-0.2200274765	1.726728082	-14.52214336	1.0
[LeftHandRing4]
215	26.47500038	0	0	0	0	0	1.0
216	26.47500038	0	0	0	0	0	1.0
217	26.47500038	0	0	0	0	0	1.0
218	26.47500038	0	0	0	0	0	1.0
[LeftHandPinky1]
215	80.77799988	-4.887000084	-38.06099701	-1.588641286	30.17630386	-45.9718895	1.0
216	80.77799988	-4.887000084	-38.06099701	-1.812307954	29.9944725	-48.13347626	1.0
217	80.77799988	-4.887000084	-38.06099701	-1.956310868	29.90912247	-49.50803375	1.0
218	80.77799988	-4.887000084	-38.06099701	-2.37754178	30.27663231	-53.61995697	1.0
[LeftHandPinky2]
215	36	0	0	1.067073703	0.9185695052	-37.47503281	1.0
216	36	0	0	1.037503123	1.146446943	-39.1158638	1.0
217	36	0	0	1.098324418	0.58687222	-35.09622955	1.0
218	36	0	0	1.111203909	-0.3715445697	-28.25042915	1.0
[LeftHandPinky3]
215	21.14200211	0	0	-1.727056384	4.555408001	-41.50826263	1.0
216	21.14200211	0	0	-1.536839962	4.331655502	-39.05364227	1.0
217	21.14200211	0	0	-1.006521344	3.582088232	-31.37980652	1.0
218	21.14200211	0	0	-0.5062041283	2.590665579	-22.10810471	1.0
[LeftHandPinky4]
215	19.75699997	0	0	0	0	0	1.0
216	19.75699997	0	0	0	0	0	1.0
217	19.75699997	0	0	0	0	0	1.0
218	19.75699997	0	0	0	0	0	1.0
[RightShoulder]
215	-45.70000076	109.4620056	-26.28000069	2.668472528	6.961896896	18.98138618	1.0
216	-45.70000076	109.4620056	-26.28000069	2.640024424	6.287297249	20.55446053	1.0
217	-45.70000076	109.4620056	-26.28000069	2.65458107	6.852331638	19.12734413	1.0
218	-45.70000076	109.4620056	-26.28000069	2.412003279	7.061443806	16.08939362	1.0
[RightArm]
215	-105.9280014	-5.248000145	-22.32099915	-12.40903091	47.7618866	31.94890976	1.0
216	-105.9280014	-5.248000145	-22.32099915	9.735855103	43.63838959	37.38339233	1.0
217	-105.9280014	-5.248000145	-22.32099915	21.46982956	38.56612015	38.9716568	1.0
218	-105.9280014	-5.248000145	-22.32099915	26.93942642	35.18476868	40.37617111	1.0
[RightForeArm]
215	-278.414978	0	0	1.543032567e-06	58.04990768	-5.950068498e-06	1.0
216	-278.414978	0	0	7.163425266e-07	64.87759399	-2.610378033e-05	1.0
217	-278.414978	0	0	-3.048774306e-05	74.20927429	-6.037364074e-05	1.0
218	-278.414978	0	0	5.383228199e-06	80.87439728	3.205775283e-05	1.0
[RightHand]
215	-283.2879944	0	0.0009999999311	18.07580376	5.720449448	-23.32518005	1.0
216	-283.2879944	0	0.0009999999311	23.22014809	-0.7961448431	-18.87223244	1.0
217	-283.2879944	0	0.0009999999311	28.16767693	-6.231069088	-14.86521053	1.0
218	-283.2879944	0	0.0009999999311	30.80709457	-10.09942055	-12.5046587	1.0
[RightHandPinky1]
215	-80.76699829	-4.885000229	-38.06000137	-0.6569362283	-21.31133461	30.38504219	1.0
216	-80.76699829	-4.885000229	-38.06000137	-1.539089203	-22.42003822	42.13314056	1.0
217	-80.76699829	-4.885000229	-38.06000137	-2.294961452	-23.08064461	50.37861252	1.0
218	-80.76699829	-4.885000229	-38.06000137	-2.430353642	-23.18298912	51.75082016	1.0
[RightHandPinky2]
215	-36	0	0.0009999999311	-2.559997559	-5.379675388	50.88420486	1.0
216	-36	0	0.0009999999311	-4.055377483	-6.302887917	65.4979248	1.0
217	-36	0	0.0009999999311	-4.926337719	-6.629105568	73.22062683	1.0
218	-36	0	0.0009999999311	-4.612291813	-6.526774406	70.47963715	1.0
[RightHandPinky3]
215	-21.14200211	0	0	-0.9587782025	-3.521081209	30.45571327	1.0
216	-21.14200211	0	0	-1.75935638	-4.617096901	41.70156097	1.0
217	-21.14200211	0	0	-2.137304068	-5.007734776	46.20418549	1.0
218	-21.14200211	0	0	-1.740313292	-4.595688343	41.46429062	1.0
[RightHandPinky4]
215	-19.75699997	0	0	0	0	0	1.0
216	-19.75699997	0	0	0	0	0	1.0
217	-19.75699997	0	0	0	0	0	1.0
218	-19.75699997	0	0	0	0	0	1.0
[RightHandRing1]
215	-91.03599548	-0.4390000105	-18.65100098	-0.1106855348	-9.217913628	12.63965416	1.0
216	-91.03599548	-0.4390000105	-18.65100098	-0.5365401506	-9.742138863	23.61431503	1.0
217	-91.03599548	-0.4390000105	-18.65100098	-1.081522346	-9.99385643	32.90457535	1.0
218	-91.03599548	-0.4390000105	-18.65100098	-1.261597037	-9.799492836	35.48321533	1.0
[RightHandRing2]
215	-31.54000092	0	0	-0.3484725952	-2.173334122	18.21678543	1.0
216	-31.54000092	0	0	-0.6296840906	-2.890343189	24.57611275	1.0
217	-31.54000092	0	0	-0.8476163745	-3.325161934	28.59413338	1.0
218	-31.54000092	0	0	-0.7943425775	-3.225665331	27.66188049	1.0
[RightHandRing3]
215	-29.37700081	0	0	-5.523679256	-2.459689856	20.64837646	1.0
216	-29.37700081	0	0	-8.069365501	-3.224793434	27.64099312	1.0
217	-29.37700081	0	0	-9.139512062	-3.556478739	30.79572105	1.0
218	-29.37700081	0	0	-8.698114395	-3.245464802	27.84088326	1.0
[RightHandRing4]
215	-26.47500038	0	0	0	0	0	1.0
216	-26.47500038	0	0	0	0	0	1.0
217	-26.47500038	0	0	0	0	0	1.0
218	-26.47500038	0	0	0	0	0	1.0
[RightHandMiddle1]
215	-95.32500458	0	0	-0.00534717273	0.7511539459	0.2609212399	1.0
216	-95.32500458	0	0	-0.1137211993	1.150730133	10.54187012	1.0
217	-95.32500458	0	0	-0.3677117825	1.790241718	19.06347656	1.0
218	-95.32500458	0	0	-0.5319891572	2.350365162	23.08362961	1.0
[RightHandMiddle2]
215	-36.98199844	0	0	-0.05934744328	-0.9068123698	7.491549015	1.0
216	-36.98199844	0	0	-0.07758404315	-1.035883904	8.565995216	1.0
217	-36.98199844	0	0	-0.1256138682	-1.31577158	10.90640354	1.0
218	-36.98199844	0	0	-0.1439714134	-1.407691836	11.67894554	1.0
[RightHandMiddle3]
215	-29.50900078	0	0	-3.635383606	-1.155394793	9.533981323	1.0
216	-29.50900078	0	0	-5.170011997	-1.374801755	11.38344097	1.0
217	-29.50900078	0	0	-5.6355896	-1.516573191	12.57993984	1.0
218	-29.50900078	0	0	-5.811509132	-1.371546149	11.35841656	1.0
[RightHandMiddle4]
215	-28.3390007	0	0.0009999999311	0	0	0	1.0
216	-28.3390007	0	0.0009999999311	0	0	0	1.0
217	-28.3390007	0	0.0009999999311	0	0	0	1.0
218	-28.3390007	0	0.0009999999311	0	0	0	1.0
[RightHandIndex1]
215	-91.08300018	-5.167999744	22.60099792	0.009164200164	10.30307198	-8.178431511	1.0
216	-91.08300018	-5.167999744	22.60099792	0.1460368782	11.8920269	2.780720472	1.0
217	-91.08300018	-5.167999744	22.60099792	0.06801413	13.62289715	12.59051228	1.0
218	-91.08300018	-5.167999744	22.60099792	-0.01839316636	14.87511063	17.30152702	1.0
[RightHandIndex2]
215	-36.76399994	0	0	-0.009948894382	-0.3717983961	3.064265251	1.0
216	-36.76399994	0	0	3.929768297e-07	-2.148205112e-06	2.449970452e-05	1.0
217	-36.76399994	0	0	2.929943321e-06	3.180554719e-15	-1.590277359e-15	1.0
218	-36.76399994	0	0	1.340932727e-06	-3.04329933e-06	4.713046656e-05	1.0
[RightHandIndex3]
215	-28.83100128	0	0	-0.0009135282598	-0.1127955616	0.9291424155	1.0
216	-28.83100128	0	0	-0.003255014075	0.212744385	-1.75276804	1.0
217	-28.83100128	0	0	-0.008641357534	0.3466019928	-2.856248379	1.0
218	-28.83100128	0	0	-0.01002094522	0.3732665181	-3.076316118	1.0
[RightHandIndex4]
215	-23.92700005	0	0	0	0	0	1.0
216	-23.92700005	0	0	0	0	0	1.0
217	-23.92700005	0	0	0	0	0	1.0
218	-23.92700005	0	0	0	0	0	1.0
[RightHandThumb1]
215	-24.64799881	-15.72700024	26.82600021	7.77835989	-14.95821095	-12.69839668	1.0
216	-24.64799881	-15.72700024	26.82600021	7.982721329	-13.68545914	-9.884526253	1.0
217	-24.64799881	-15.72700024	26.82600021	7.919029713	-12.25702095	-7.430446625	1.0
218	-24.64799881	-15.72700024	26.82600021	7.611750126	-11.14270496	-6.015359879	1.0
[RightHandThumb2]
215	-32.29800034	-18.64699936	18.64699936	2.060243845	0.3369003236	1.680923104	1.0
216	-32.29800034	-18.64699936	18.64699936	2.060236454	0.3369174302	1.680924296	1.0
217	-32.29800034	-18.64699936	18.64699936	2.060263872	0.3368813992	1.680889487	1.0
218	-32.29800034	-18.64699936	18.64699936	2.060280561	0.3369142413	1.680874825	1.0
[RightHandThumb3]
215	-26.52600098	-15.31399918	15.31399918	-3.931279898	4.240762711	-3.001077175	1.0
216	-26.52600098	-15.31399918	15.31399918	-4.357165813	4.898155212	-3.155979395	1.0
217	-26.52600098	-15.31399918	15.31399918	-4.701255322	5.430440903	-3.278116703	1.0
218	-26.52600098	-15.31399918	15.31399918	-4.916089535	5.763367176	-3.352026701	1.0
[RightHandThumb4]
215	-19.54599953	-11.28499985	11.28499985	0	0	0	1.0
216	-19.54599953	-11.28499985	11.28499985	0	0	0	1.0
217	-19.54599953	-11.28499985	11.28499985	0	0	0	1.0
218	-19.54599953	-11.28499985	11.28499985	0	0	0	1.0
[LeftUpLeg]
215	82.07800293	-67.51699829	-15.99599934	0.2769367695	-1.546934485	-8.427859306	1.0
216	82.07800293	-67.51699829	-15.99599934	-1.498323083	-6.125575066	-2.215319157	1.0
217	82.07800293	-67.51699829	-15.99599934	-6.709300518	-5.772233963	5.36275816	1.0
218	82.07800293	-67.51699829	-15.99599934	-10.45116615	-5.162514687	9.585042	1.0
[LeftLeg]
215	0	-443.7049866	2.845999956	28.45425224	10.96713161	-6.454626083	1.0
216	0	-443.7049866	2.845999956	31.40309334	10.76595783	-6.023871899	1.0
217	0	-443.7049866	2.845999956	40.37578964	11.40180588	-3.347938299	1.0
218	0	-443.7049866	2.845999956	41.70226288	7.732607365	-0.5973488688	1.0
[LeftFoot]
215	0	-444.2789917	-29.8219986	-22.99773026	12.37691784	-2.283510447	1.0
216	0	-444.2789917	-29.8219986	-18.74822617	16.17637253	-5.194458961	1.0
217	0	-444.2789917	-29.8219986	-10.45667553	13.19634819	-5.190560341	1.0
218	0	-444.2789917	-29.8219986	-9.044113159	9.474542618	0.123858057	1.0
[LeftToeBase]
215	0	-87.28699493	107.1060028	-3.171451092	6.022191428e-06	2.45268734e-06	1.0
216	0	-87.28699493	107.1060028	-7.874731541	-8.284858268e-06	5.677727017e-07	1.0
217	0	-87.28699493	107.1060028	-16.31674957	2.279936552e-06	-2.310826858e-06	1.0
218	0	-87.28699493	107.1060028	-13.20246124	-0.3766100705	-1.748724222	1.0
[RightUpLeg]
215	-82.07800293	-67.51699829	-15.99599934	-29.37951469	-20.21097565	-12.89617729	1.0
216	-82.07800293	-67.51699829	-15.99599934	-18.32762146	-20.00864029	-9.196451187	1.0
217	-82.07800293	-67.51699829	-15.99599934	-6.950368404	-14.75424767	-2.642668962	1.0
218	-82.07800293	-67.51699829	-15.99599934	-1.312471867	-9.787002563	5.368577003	1.0
[RightLeg]
215	0	-443.7049866	2.861999989	63.40849304	-5.784023762	-7.940108299	1.0
216	0	-443.7049866	2.861999989	57.54343414	-7.233603001	-7.198727131	1.0
217	0	-443.7049866	2.861999989	42.15272903	-9.442171097	-5.401711464	1.0
218	0	-443.7049866	2.861999989	28.86425018	-10.94822598	-2.740175724	1.0
[RightFoot]
215	0	-444.2770081	-29.83799934	-11.71550751	-21.44672966	3.311892271	1.0
216	0	-444.2770081	-29.83799934	-6.667207241	-18.29742241	5.63739109	1.0
217	0	-444.2770081	-29.83799934	-15.92593384	-13.53996277	12.36396313	1.0
218	0	-444.2770081	-29.83799934	-22.23515892	-19.1621933	11.1084919	1.0
[RightToeBase]
215	0	-87.28699493	107.1060028	5.833613396	-0.2131809741	1.771628499	1.0
216	0	-87.28699493	107.1060028	-9.248927116	0.5748453736	5.317789555	1.0
217	0	-87.28699493	107.1060028	-11.99562263	-0.2785413265	-1.411291838	1.0
218	0	-87.28699493	107.1060028	-4.000611782	-3.143968934e-05	1.24165274e-06	1.0
[EndOfFile]
